<mxfile host="app.diagrams.net" modified="2024-06-11T17:05:08.209Z" agent="Mozilla/5.0 (Windows NT 10.0; Win64; x64) AppleWebKit/537.36 (KHTML, like Gecko) Chrome/125.0.0.0 Safari/537.36" etag="L9p5INLP10fiR_78tZ_O" version="23.1.7" type="github">
  <diagram id="C5RBs43oDa-KdzZeNtuy" name="Page-1">
    <mxGraphModel dx="1434" dy="772" grid="1" gridSize="10" guides="1" tooltips="1" connect="1" arrows="1" fold="1" page="1" pageScale="1" pageWidth="827" pageHeight="1169" math="0" shadow="0">
      <root>
        <mxCell id="WIyWlLk6GJQsqaUBKTNV-0" />
        <mxCell id="WIyWlLk6GJQsqaUBKTNV-1" parent="WIyWlLk6GJQsqaUBKTNV-0" />
        <mxCell id="frKfWH_SPX77jITdz0Tl-19" style="edgeStyle=orthogonalEdgeStyle;rounded=0;orthogonalLoop=1;jettySize=auto;html=1;entryX=0.5;entryY=0;entryDx=0;entryDy=0;" edge="1" parent="WIyWlLk6GJQsqaUBKTNV-1" source="frKfWH_SPX77jITdz0Tl-1" target="frKfWH_SPX77jITdz0Tl-18">
          <mxGeometry relative="1" as="geometry" />
        </mxCell>
        <mxCell id="frKfWH_SPX77jITdz0Tl-1" value="CompetenceNavigator" style="rounded=0;whiteSpace=wrap;html=1;" vertex="1" parent="WIyWlLk6GJQsqaUBKTNV-1">
          <mxGeometry x="180" y="20" width="150" height="40" as="geometry" />
        </mxCell>
        <mxCell id="frKfWH_SPX77jITdz0Tl-20" style="edgeStyle=orthogonalEdgeStyle;rounded=0;orthogonalLoop=1;jettySize=auto;html=1;entryX=0.5;entryY=0;entryDx=0;entryDy=0;" edge="1" parent="WIyWlLk6GJQsqaUBKTNV-1" source="frKfWH_SPX77jITdz0Tl-2" target="frKfWH_SPX77jITdz0Tl-18">
          <mxGeometry relative="1" as="geometry" />
        </mxCell>
        <mxCell id="frKfWH_SPX77jITdz0Tl-2" value="EmployeeHeader" style="rounded=0;whiteSpace=wrap;html=1;" vertex="1" parent="WIyWlLk6GJQsqaUBKTNV-1">
          <mxGeometry x="370" y="20" width="150" height="40" as="geometry" />
        </mxCell>
        <mxCell id="frKfWH_SPX77jITdz0Tl-3" value="EmployeeSearch" style="rounded=0;whiteSpace=wrap;html=1;" vertex="1" parent="WIyWlLk6GJQsqaUBKTNV-1">
          <mxGeometry x="275" y="730" width="150" height="40" as="geometry" />
        </mxCell>
        <mxCell id="frKfWH_SPX77jITdz0Tl-12" style="edgeStyle=orthogonalEdgeStyle;rounded=0;orthogonalLoop=1;jettySize=auto;html=1;entryX=0.5;entryY=0;entryDx=0;entryDy=0;" edge="1" parent="WIyWlLk6GJQsqaUBKTNV-1" source="frKfWH_SPX77jITdz0Tl-5" target="frKfWH_SPX77jITdz0Tl-11">
          <mxGeometry relative="1" as="geometry" />
        </mxCell>
        <mxCell id="frKfWH_SPX77jITdz0Tl-5" value="Update url" style="ellipse;whiteSpace=wrap;html=1;" vertex="1" parent="WIyWlLk6GJQsqaUBKTNV-1">
          <mxGeometry x="290" y="170" width="120" height="80" as="geometry" />
        </mxCell>
        <mxCell id="frKfWH_SPX77jITdz0Tl-27" style="edgeStyle=orthogonalEdgeStyle;rounded=0;orthogonalLoop=1;jettySize=auto;html=1;" edge="1" parent="WIyWlLk6GJQsqaUBKTNV-1" source="frKfWH_SPX77jITdz0Tl-11" target="frKfWH_SPX77jITdz0Tl-26">
          <mxGeometry relative="1" as="geometry" />
        </mxCell>
        <mxCell id="frKfWH_SPX77jITdz0Tl-11" value="LoadCompetence" style="ellipse;whiteSpace=wrap;html=1;" vertex="1" parent="WIyWlLk6GJQsqaUBKTNV-1">
          <mxGeometry x="290" y="270" width="120" height="80" as="geometry" />
        </mxCell>
        <mxCell id="frKfWH_SPX77jITdz0Tl-21" style="edgeStyle=orthogonalEdgeStyle;rounded=0;orthogonalLoop=1;jettySize=auto;html=1;entryX=0.5;entryY=0;entryDx=0;entryDy=0;" edge="1" parent="WIyWlLk6GJQsqaUBKTNV-1" source="frKfWH_SPX77jITdz0Tl-18" target="frKfWH_SPX77jITdz0Tl-5">
          <mxGeometry relative="1" as="geometry" />
        </mxCell>
        <mxCell id="frKfWH_SPX77jITdz0Tl-18" value="navigate" style="rounded=0;whiteSpace=wrap;html=1;" vertex="1" parent="WIyWlLk6GJQsqaUBKTNV-1">
          <mxGeometry x="300" y="110" width="100" height="30" as="geometry" />
        </mxCell>
        <mxCell id="frKfWH_SPX77jITdz0Tl-30" value="yes" style="edgeStyle=orthogonalEdgeStyle;rounded=0;orthogonalLoop=1;jettySize=auto;html=1;" edge="1" parent="WIyWlLk6GJQsqaUBKTNV-1" source="frKfWH_SPX77jITdz0Tl-26" target="frKfWH_SPX77jITdz0Tl-31">
          <mxGeometry relative="1" as="geometry">
            <mxPoint x="350" y="570" as="targetPoint" />
          </mxGeometry>
        </mxCell>
        <mxCell id="frKfWH_SPX77jITdz0Tl-34" value="No" style="edgeStyle=orthogonalEdgeStyle;rounded=0;orthogonalLoop=1;jettySize=auto;html=1;entryX=0;entryY=0.5;entryDx=0;entryDy=0;" edge="1" parent="WIyWlLk6GJQsqaUBKTNV-1" source="frKfWH_SPX77jITdz0Tl-26" target="frKfWH_SPX77jITdz0Tl-33">
          <mxGeometry relative="1" as="geometry" />
        </mxCell>
        <mxCell id="frKfWH_SPX77jITdz0Tl-26" value="Are employees&lt;br&gt;loaded for&lt;br&gt;competence?" style="rhombus;whiteSpace=wrap;html=1;" vertex="1" parent="WIyWlLk6GJQsqaUBKTNV-1">
          <mxGeometry x="275" y="390" width="150" height="120" as="geometry" />
        </mxCell>
        <mxCell id="frKfWH_SPX77jITdz0Tl-37" style="edgeStyle=orthogonalEdgeStyle;rounded=0;orthogonalLoop=1;jettySize=auto;html=1;entryX=0.5;entryY=0;entryDx=0;entryDy=0;" edge="1" parent="WIyWlLk6GJQsqaUBKTNV-1" source="frKfWH_SPX77jITdz0Tl-31" target="frKfWH_SPX77jITdz0Tl-3">
          <mxGeometry relative="1" as="geometry" />
        </mxCell>
        <mxCell id="frKfWH_SPX77jITdz0Tl-31" value="LoadEmployeesFromCache" style="ellipse;whiteSpace=wrap;html=1;" vertex="1" parent="WIyWlLk6GJQsqaUBKTNV-1">
          <mxGeometry x="255" y="580" width="190" height="80" as="geometry" />
        </mxCell>
        <mxCell id="frKfWH_SPX77jITdz0Tl-41" style="edgeStyle=orthogonalEdgeStyle;rounded=0;orthogonalLoop=1;jettySize=auto;html=1;entryX=0;entryY=0.5;entryDx=0;entryDy=0;" edge="1" parent="WIyWlLk6GJQsqaUBKTNV-1" source="frKfWH_SPX77jITdz0Tl-33" target="frKfWH_SPX77jITdz0Tl-35">
          <mxGeometry relative="1" as="geometry" />
        </mxCell>
        <mxCell id="frKfWH_SPX77jITdz0Tl-42" style="edgeStyle=orthogonalEdgeStyle;rounded=0;orthogonalLoop=1;jettySize=auto;html=1;entryX=1;entryY=0.5;entryDx=0;entryDy=0;" edge="1" parent="WIyWlLk6GJQsqaUBKTNV-1" source="frKfWH_SPX77jITdz0Tl-33" target="frKfWH_SPX77jITdz0Tl-3">
          <mxGeometry relative="1" as="geometry">
            <Array as="points">
              <mxPoint x="580" y="750" />
            </Array>
          </mxGeometry>
        </mxCell>
        <mxCell id="frKfWH_SPX77jITdz0Tl-33" value="LoadEmployees" style="ellipse;whiteSpace=wrap;html=1;" vertex="1" parent="WIyWlLk6GJQsqaUBKTNV-1">
          <mxGeometry x="489" y="410" width="190" height="80" as="geometry" />
        </mxCell>
        <mxCell id="frKfWH_SPX77jITdz0Tl-35" value="UpdateCache" style="ellipse;whiteSpace=wrap;html=1;" vertex="1" parent="WIyWlLk6GJQsqaUBKTNV-1">
          <mxGeometry x="730" y="410" width="190" height="80" as="geometry" />
        </mxCell>
      </root>
    </mxGraphModel>
  </diagram>
</mxfile>
